# xmcd
#
# Track frame offsets:
#	183
#	14578
#	22713
#	33570
#	48048
#	63305
#	72928
#	85960
#	95058
#	105440
#	118305
#	128060
#
# Disc length: 1851 seconds
#
# Revision: 2
# Processed by: cddbd v1.4PL0 Copyright (c) Steve Scherf et al.
# Submitted via: audiograbber 1.81.02
#
DISCID=9907390c
DTITLE=Various Artist - Old Time Camp Meeting
DYEAR=1987
DGENRE=Country
TTITLE0=When I Lay My Burdens Down - Wilma Lee-Stoney Cooper
TTITLE1=Gonna Build A Mountain - J.D. Sumner and The Stamps
TTITLE2=Maple On The Hill - Jackie Phelps
TTITLE3=I've Got A Mansion - Sego Brothers and Naomi
TTITLE4=Why Me Lord - The Nashville Harmonica
TTITLE5=Rocking Alone In An Old Rocking Chair - Roy Wiggins
TTITLE6=Walking My Lord Up Calvary's Hill - Wilma Lee-Stoney Cooper
TTITLE7=Little Drummer Boy - Vic Jordan
TTITLE8=I'm Too Near Home - The Blue Ridge Quartet
TTITLE9=I Want To Go To Heaven - The Blackwood Singers
TTITLE10=Home Sweet Home - Curtis McPeake
TTITLE11=How Great Thou Art - The Sunshine Boys
EXTD=
EXTT0=
EXTT1=
EXTT2=
EXTT3=
EXTT4=
EXTT5=
EXTT6=
EXTT7=
EXTT8=
EXTT9=
EXTT10=
EXTT11=
PLAYORDER=
